<svg width="80" height="39" viewBox="0 0 80 39" xmlns="http://www.w3.org/2000/svg"><path d="M69.08 28.326h8.836v4.026H69.08v-4.026zm5.567 4.996h4.22v-5.965H68.13v10.957h.95v-4.992h4.223l4.89 4.992h1.345l-4.89-4.992zM43.81 27.357H28.185v.97h4.894v9.987h.95v-9.988h9.78v9.988h.954v-9.988h4.894v-.97H43.81M5.368 31.792L.673 27H0v10.957h.95v-9.3l4.418 4.507 4.418-4.508v9.3h.95V27h-.674l-4.694 4.792m14.31.56l1.678-3.426 1.676 3.426h-3.354zm1.383-4.995l-5.365 10.957h1.063l2.445-4.992h4.306l2.44 4.992h1.065L21.65 27.357h-.59zm32.756 10.957h9.923v-.968h-8.974v-4.024h4.894v-.972h-4.893v-4.024h8.972v-.97h-9.925v10.958M38.152 1.274l-2.806 5.724-5.61-5.724h8.416zm9.95 0l-5.608 5.724-2.804-5.724h8.413zm.674 18.547l-3.92-8h3.92v8zm-9.38 1.575v-8.89l8.708 8.89h-8.71zm-10.037 0l4.69-9.575h4.392v9.574H29.36zM37.77 10.85h-3.25l1.083-2.21 2.167 2.21zm.67-.688l-2.388-2.437 2.388-4.877v7.315zm.952.003v-7.32l2.39 4.88-2.39 2.44zm3.922.685H40.07l2.164-2.21 1.083 2.21zm4.2 8.573l-7.448-7.6h3.723l3.724 7.6zm1.26-8.572H44.38L42.943 7.92l5.833-5.955v8.888zM29.064 1.96l5.833 5.955-1.438 2.933h-4.396V1.96zm0 9.86h3.92l-3.92 8.002V11.82zm-.95 10.542h21.61V.305h-21.61v22.057z" fill="#555A62" fill-rule="evenodd"/></svg>