<?xml version="1.0" encoding="UTF-8"?>
<svg width="296px" height="176px" viewBox="0 0 296 176" version="1.1" xmlns="http://www.w3.org/2000/svg" xmlns:xlink="http://www.w3.org/1999/xlink">
    <!-- Generator: Sketch 39.1 (31720) - http://www.bohemiancoding.com/sketch -->
    <title>CHIentist CONNECT</title>
    <desc>Created with Sketch.</desc>
    <defs>
        <polygon id="path-1" points="0.946 0.582 4.534 0.582 4.572 7.032 0.946 7.032"></polygon>
        <polygon id="path-3" points="0.946 0.582 4.534 0.582 4.572 7.032 0.946 7.032"></polygon>
    </defs>
    <g id="Page-1" stroke="none" stroke-width="1" fill="none" fill-rule="evenodd">
        <g id="CHIentist-CONNECT">
            <path d="M30.579,175.538 C30.579,171.436 26.507,156.869 31.281,157.126 C42.216,157.714 59.735,157.96 69.156,158.038 C71.25,158.056 68.591,151.775 70.22,151.538 C81.187,149.943 118.612,151.538 118.612,151.538" id="Shape" stroke="#39B54A" stroke-width="4"></path>
            <path d="M38.233,157.126 L38.233,150.082 C38.233,150.082 39.033,144.606 38.233,143.038 C37.039,140.697 31.621,138.245 30.579,135.832 C28.996,132.169 30.051,118.647 30.579,114.538" id="Shape" stroke="#39B54A" stroke-width="4"></path>
            <path d="M0.279,145.038 L119.192,145.038" id="Shape" stroke="#FF0000" stroke-width="4"></path>
            <path d="M36.192,58.038 L36.192,58.038 L36.192,58.038 C36.192,58.038 40.944,57.205 42.192,58.038 C46.806,61.119 49.753,73.07 50.692,78.538 C51.219,81.605 50.037,88.651 52.192,90.897 C55.346,94.184 67.289,90.051 70.221,93.538 C79.254,104.279 88.048,134.028 99.192,143.057 C102.905,146.066 118.072,146.057 118.072,146.057" id="Shape" stroke="#F7931E" stroke-width="4"></path>
            <polyline id="Shape" stroke="#29ABE2" stroke-width="4" points="115.692 0.884 115.692 15.748 115.692 30.611 115.692 45.476 115.692 60.34 115.692 75.204 115.692 90.068 115.692 104.933 115.692 119.797"></polyline>
            <path d="M212.215,17.707 L212.215,17.707 L212.215,17.707 C212.215,17.707 212.643,43.994 212.215,51.723 C211.526,64.191 186.86,75.181 180.906,83.635 C179.57,85.531 173.948,83.635 171.629,83.635 C166.99,83.635 154.234,101.585 154.234,101.585 C154.234,101.585 141.092,113.182 136.444,117.352 C134.306,119.271 133.941,129 133.941,129" id="Shape" stroke="#29ABE2" stroke-width="4"></path>
            <path d="M95.192,39.038 L95.192,39.038 L95.192,39.038 L95.192,39.038 L95.192,39.038 L95.192,39.038 C95.192,39.038 96.511,76.607 95.192,89.038 C94.879,91.988 96.095,97.441 98.192,99.538 C101.816,103.162 115.692,100.902 115.692,100.902" id="Shape" stroke="#29ABE2" stroke-width="4"></path>
            <polyline id="Shape" stroke="#39B54A" stroke-width="4" points="143.192 10.861 143.192 25.726 143.192 40.589 143.192 55.453 143.192 70.317 143.192 85.182 143.192 100.046 143.192 114.91 143.192 129.774"></polyline>
            <path d="M170.408,136.759 C170.408,136.759 187.402,139.85 189.376,136.759 C190.982,134.242 188.073,125.829 191.65,125.187 C197.559,124.124 210.101,126.407 214.677,122.581 C217.241,120.436 214.857,112.261 216.041,109.097 C216.594,107.618 218.64,105.879 220.132,106.297 C224.816,107.604 233.837,109.19 234.55,106.289 C236.191,99.6 235.238,81.507 235.238,81.507 L233.768,81.43" id="Shape" stroke="#A67C52" stroke-width="4"></path>
            <path d="M170.06,147.079 C170.06,147.079 170.506,147.087 171.778,147.091 C173.048,147.095 175.141,147.095 178.436,147.079 C181.868,147.062 182.2,144.25 182.003,141.149 C181.807,138.047 181.156,132.206 182.48,131.031 C183.981,129.7 189.571,131.928 195.786,131.752 C202.002,131.574 212.426,132.055 216.144,130.9 C223.839,128.51 218.362,121.375 230.236,123.723 C244.698,122.667 249.448,122.061 269.526,119.037" id="Shape" stroke="#FF0000" stroke-width="4"></path>
            <polyline id="Shape" stroke="#FFFF00" stroke-width="4" points="277.686 66.113 268.563 68.944 266.334 71.594 266.334 84.783 266.334 90.602 266.334 96.42 266.334 107.719 266.334 108.057 266.334 115.858"></polyline>
            <path d="M173.408,137.264 C173.408,137.264 173.854,137.272 175.125,137.276 C176.395,137.28 178.489,137.28 181.783,137.264 C185.216,137.246 192.939,138.684 192.744,135.583 C192.548,132.481 191.859,129.124 193.183,127.949 C194.683,126.618 193.183,127.949 199.398,127.771 C205.613,127.594 210.162,128.925 213.88,127.771 C221.576,125.382 215.055,119.068 228.159,120.118 C247.167,118.321 244.156,119.915 295.69,110.92" id="Shape" stroke="#662D91" stroke-width="4"></path>
            <ellipse id="Oval" stroke="#FFFFFF" fill="#FFFFFF" cx="115.692" cy="4.538" rx="0.833" ry="1"></ellipse>
            <path d="M184.191,155.472 C184.191,162.099 178.819,167.472 172.191,167.472 L99.191,167.472 C92.564,167.472 87.191,162.099 87.191,155.472 L87.191,126.538 C87.191,119.911 92.564,114.538 99.191,114.538 L172.191,114.538 C178.819,114.538 184.191,119.911 184.191,126.538 L184.191,155.472 L184.191,155.472 Z" id="Shape" stroke="#000000" fill="#FFFFFF"></path>
            <ellipse id="Oval" stroke="#FFFFFF" fill="#FFFFFF" cx="115.692" cy="10.861" rx="0.833" ry="1"></ellipse>
            <ellipse id="Oval" stroke="#FFFFFF" fill="#FFFFFF" cx="115.692" cy="16.707" rx="0.833" ry="1"></ellipse>
            <ellipse id="Oval" stroke="#FFFFFF" fill="#FFFFFF" cx="115.692" cy="35.548" rx="0.833" ry="1"></ellipse>
            <ellipse id="Oval" stroke="#FFFFFF" fill="#FFFFFF" cx="115.692" cy="41.871" rx="0.833" ry="1"></ellipse>
            <ellipse id="Oval" stroke="#FFFFFF" fill="#FFFFFF" cx="115.692" cy="47.717" rx="0.833" ry="1"></ellipse>
            <ellipse id="Oval" stroke="#FFFFFF" fill="#FFFFFF" cx="115.859" cy="91.985" rx="0.833" ry="1"></ellipse>
            <ellipse id="Oval" stroke="#FFFFFF" fill="#FFFFFF" cx="115.859" cy="97.831" rx="0.833" ry="1"></ellipse>
            <ellipse id="Oval" stroke="#FFFFFF" fill="#FFFFFF" cx="115.859" cy="80.506" rx="0.833" ry="1"></ellipse>
            <ellipse id="Oval" stroke="#FFFFFF" fill="#FFFFFF" cx="115.859" cy="86.352" rx="0.833" ry="1"></ellipse>
            <ellipse id="Oval" stroke="#FFFFFF" fill="#FFFFFF" cx="115.859" cy="63.19" rx="0.833" ry="1"></ellipse>
            <ellipse id="Oval" stroke="#FFFFFF" fill="#FFFFFF" cx="115.859" cy="69.036" rx="0.833" ry="1"></ellipse>
            <ellipse id="Oval" stroke="#FFFFFF" fill="#FFFFFF" cx="95.199" cy="41.871" rx="0.833" ry="1"></ellipse>
            <ellipse id="Oval" stroke="#FFFFFF" fill="#FFFFFF" cx="95.199" cy="47.717" rx="0.833" ry="1"></ellipse>
            <ellipse id="Oval" stroke="#FFFFFF" fill="#FFFFFF" cx="95.56" cy="53.368" rx="0.833" ry="1"></ellipse>
            <ellipse id="Oval" stroke="#FFFFFF" fill="#FFFFFF" cx="95.56" cy="60.341" rx="0.833" ry="1"></ellipse>
            <ellipse id="Oval" stroke="#FFFFFF" fill="#FFFFFF" cx="95.56" cy="67.538" rx="0.833" ry="1"></ellipse>
            <ellipse id="Oval" stroke="#FFFFFF" fill="#FFFFFF" cx="95.56" cy="74.181" rx="0.833" ry="1"></ellipse>
            <ellipse id="Oval" stroke="#FFFFFF" fill="#FFFFFF" cx="95.56" cy="80.506" rx="0.833" ry="1"></ellipse>
            <ellipse id="Oval" stroke="#FFFFFF" fill="#FFFFFF" cx="107.938" cy="101.599" rx="0.833" ry="1"></ellipse>
            <ellipse id="Oval" stroke="#FFFFFF" fill="#FFFFFF" cx="98.125" cy="99.599" rx="0.833" ry="1"></ellipse>
            <ellipse id="Oval" stroke="#FFFFFF" fill="#FFFFFF" cx="115.692" cy="110.206" rx="0.833" ry="1"></ellipse>
            <ellipse id="Oval" stroke="#FFFFFF" fill="#FFFFFF" cx="143.108" cy="14.008" rx="0.833" ry="1"></ellipse>
            <ellipse id="Oval" stroke="#FFFFFF" fill="#FFFFFF" cx="143.108" cy="20.331" rx="0.833" ry="1"></ellipse>
            <ellipse id="Oval" stroke="#FFFFFF" fill="#FFFFFF" cx="143.108" cy="26.177" rx="0.833" ry="1"></ellipse>
            <ellipse id="Oval" stroke="#FFFFFF" fill="#FFFFFF" cx="143.109" cy="45.018" rx="0.833" ry="1"></ellipse>
            <ellipse id="Oval" stroke="#FFFFFF" fill="#FFFFFF" cx="143.109" cy="51.341" rx="0.833" ry="1"></ellipse>
            <ellipse id="Oval" stroke="#FFFFFF" fill="#FFFFFF" cx="143.109" cy="57.187" rx="0.833" ry="1"></ellipse>
            <ellipse id="Oval" stroke="#FFFFFF" fill="#FFFFFF" cx="143.276" cy="78.506" rx="0.833" ry="1"></ellipse>
            <ellipse id="Oval" stroke="#FFFFFF" fill="#FFFFFF" cx="143.108" cy="33.625" rx="0.833" ry="1"></ellipse>
            <ellipse id="Oval" stroke="#FFFFFF" fill="#FFFFFF" cx="143.108" cy="39.471" rx="0.833" ry="1"></ellipse>
            <ellipse id="Oval" stroke="#FFFFFF" fill="#FFFFFF" cx="143.108" cy="62.341" rx="0.833" ry="1"></ellipse>
            <ellipse id="Oval" stroke="#FFFFFF" fill="#FFFFFF" cx="143.108" cy="68.187" rx="0.833" ry="1"></ellipse>
            <ellipse id="Oval" stroke="#FFFFFF" fill="#FFFFFF" cx="212.405" cy="19.894" rx="0.833" ry="1"></ellipse>
            <ellipse id="Oval" stroke="#FFFFFF" fill="#FFFFFF" cx="212.405" cy="26.217" rx="0.833" ry="1"></ellipse>
            <ellipse id="Oval" stroke="#FFFFFF" fill="#FFFFFF" cx="212.405" cy="32.063" rx="0.833" ry="1"></ellipse>
            <ellipse id="Oval" stroke="#FFFFFF" fill="#FFFFFF" cx="212.405" cy="39.511" rx="0.833" ry="1"></ellipse>
            <ellipse id="Oval" stroke="#FFFFFF" fill="#FFFFFF" cx="212.405" cy="45.356" rx="0.833" ry="1"></ellipse>
            <ellipse id="Oval" stroke="#FFFFFF" fill="#FFFFFF" cx="202.961" cy="65.19" rx="0.833" ry="1"></ellipse>
            <ellipse id="Oval" stroke="#FFFFFF" fill="#FFFFFF" cx="191.692" cy="74.181" rx="0.833" ry="1"></ellipse>
            <ellipse id="Oval" stroke="#FFFFFF" fill="#FFFFFF" cx="184.192" cy="80.038" rx="0.833" ry="1"></ellipse>
            <ellipse id="Oval" stroke="#FFFFFF" fill="#FFFFFF" cx="163.775" cy="89.371" rx="0.833" ry="1"></ellipse>
            <ellipse id="Oval" stroke="#FFFFFF" fill="#FFFFFF" cx="159.608" cy="94.371" rx="0.833" ry="1"></ellipse>
            <ellipse id="Oval" stroke="#FFFFFF" fill="#FFFFFF" cx="155.858" cy="98.831" rx="0.833" ry="1"></ellipse>
            <ellipse id="Oval" stroke="#FFFFFF" fill="#FFFFFF" cx="150.692" cy="104.599" rx="0.833" ry="1"></ellipse>
            <ellipse id="Oval" stroke="#FFFFFF" fill="#FFFFFF" cx="39.422" cy="57.668" rx="0.833" ry="1"></ellipse>
            <ellipse id="Oval" stroke="#FFFFFF" fill="#FFFFFF" cx="46.317" cy="63.341" rx="0.833" ry="1"></ellipse>
            <ellipse id="Oval" stroke="#FFFFFF" fill="#FFFFFF" cx="50.442" cy="76.181" rx="0.833" ry="1"></ellipse>
            <ellipse id="Oval" stroke="#FFFFFF" fill="#FFFFFF" cx="52.192" cy="90.897" rx="0.833" ry="1"></ellipse>
            <ellipse id="Oval" stroke="#FFFFFF" fill="#FFFFFF" cx="72.558" cy="96.871" rx="0.833" ry="1"></ellipse>
            <ellipse id="Oval" stroke="#FFFFFF" fill="#FFFFFF" cx="77.132" cy="104.913" rx="0.833" ry="1"></ellipse>
            <ellipse id="Oval" stroke="#FFFFFF" fill="#FFFFFF" cx="40.476" cy="145.038" rx="1" ry="0.833"></ellipse>
            <ellipse id="Oval" stroke="#FFFFFF" fill="#FFFFFF" cx="34.152" cy="145.038" rx="1" ry="0.833"></ellipse>
            <ellipse id="Oval" stroke="#FFFFFF" fill="#FFFFFF" cx="28.307" cy="145.038" rx="1" ry="0.833"></ellipse>
            <ellipse id="Oval" stroke="#FFFFFF" fill="#FFFFFF" cx="9.466" cy="145.039" rx="1" ry="0.833"></ellipse>
            <ellipse id="Oval" stroke="#FFFFFF" fill="#FFFFFF" cx="3.143" cy="145.039" rx="1" ry="0.833"></ellipse>
            <ellipse id="Oval" stroke="#FFFFFF" fill="#FFFFFF" cx="20.858" cy="145.038" rx="1" ry="0.833"></ellipse>
            <ellipse id="Oval" stroke="#FFFFFF" fill="#FFFFFF" cx="15.013" cy="145.038" rx="1" ry="0.833"></ellipse>
            <ellipse id="Oval" stroke="#FFFFFF" fill="#FFFFFF" cx="59.735" cy="145.039" rx="1" ry="0.833"></ellipse>
            <ellipse id="Oval" stroke="#FFFFFF" fill="#FFFFFF" cx="77.965" cy="145.038" rx="1" ry="0.833"></ellipse>
            <ellipse id="Oval" stroke="#FFFFFF" fill="#FFFFFF" cx="49.025" cy="157.626" rx="1" ry="0.833"></ellipse>
            <ellipse id="Oval" stroke="#FFFFFF" fill="#FFFFFF" cx="44.167" cy="157.626" rx="1" ry="0.833"></ellipse>
            <ellipse id="Oval" stroke="#FFFFFF" fill="#FFFFFF" cx="60.735" cy="157.959" rx="1" ry="0.833"></ellipse>
            <ellipse id="Oval" stroke="#FFFFFF" fill="#FFFFFF" cx="55.038" cy="157.626" rx="1" ry="0.833"></ellipse>
            <ellipse id="Oval" stroke="#FFFFFF" fill="#FFFFFF" cx="30.307" cy="116.167" rx="1" ry="0.833"></ellipse>
            <ellipse id="Oval" stroke="#FFFFFF" fill="#FFFFFF" cx="29.96" cy="120.63" rx="1" ry="0.833"></ellipse>
            <ellipse id="Oval" stroke="#FFFFFF" fill="#FFFFFF" cx="69.743" cy="139.63" rx="1" ry="0.833"></ellipse>
            <ellipse id="Oval" stroke="#FFFFFF" fill="#FFFFFF" cx="29.743" cy="128.744" rx="1" ry="0.833"></ellipse>
            <ellipse id="Oval" stroke="#FFFFFF" fill="#FFFFFF" cx="33.152" cy="138.327" rx="1" ry="0.833"></ellipse>
            <ellipse id="Oval" stroke="#FFFFFF" fill="#FFFFFF" cx="30.307" cy="173.244" rx="1" ry="0.833"></ellipse>
            <ellipse id="Oval" stroke="#FFFFFF" fill="#FFFFFF" cx="28.743" cy="162.35" rx="1" ry="0.833"></ellipse>
            <ellipse id="Oval" stroke="#FFFFFF" fill="#FFFFFF" cx="75.327" cy="151.183" rx="1" ry="0.833"></ellipse>
            <ellipse id="Oval" stroke="#FFFFFF" fill="#FFFFFF" cx="83.473" cy="150.83" rx="1" ry="0.833"></ellipse>
            <ellipse id="Oval" stroke="#FFFFFF" fill="#FFFFFF" cx="275.543" cy="66.947" rx="1" ry="0.833"></ellipse>
            <ellipse id="Oval" stroke="#FFFFFF" fill="#FFFFFF" cx="266.334" cy="115.858" rx="1" ry="0.833"></ellipse>
            <ellipse id="Oval" stroke="#FFFFFF" fill="#FFFFFF" cx="235.514" cy="82.262" rx="1" ry="0.833"></ellipse>
            <ellipse id="Oval" stroke="#FFFFFF" fill="#FFFFFF" cx="271.01" cy="115.024" rx="1" ry="0.833"></ellipse>
            <ellipse id="Oval" stroke="#FFFFFF" fill="#FFFFFF" cx="275.754" cy="114.328" rx="1" ry="0.833"></ellipse>
            <ellipse id="Oval" stroke="#FFFFFF" fill="#FFFFFF" cx="281.421" cy="113.357" rx="1" ry="0.833"></ellipse>
            <ellipse id="Oval" stroke="#FFFFFF" fill="#FFFFFF" cx="286.275" cy="112.523" rx="1" ry="0.833"></ellipse>
            <ellipse id="Oval" stroke="#FFFFFF" fill="#FFFFFF" cx="291.858" cy="111.69" rx="1" ry="0.833"></ellipse>
            <ellipse id="Oval" stroke="#FFFFFF" fill="#FFFFFF" cx="249.334" cy="105.858" rx="1" ry="0.833"></ellipse>
            <ellipse id="Oval" stroke="#FFFFFF" fill="#FFFFFF" cx="260.797" cy="120.682" rx="1" ry="0.833"></ellipse>
            <ellipse id="Oval" stroke="#FFFFFF" fill="#FFFFFF" cx="266.775" cy="119.872" rx="1" ry="0.833"></ellipse>
            <ellipse id="Oval" stroke="#FFFFFF" fill="#FFFFFF" cx="266.334" cy="112.107" rx="1" ry="0.833"></ellipse>
            <ellipse id="Oval" stroke="#FFFFFF" fill="#FFFFFF" cx="254.642" cy="121.516" rx="1" ry="0.833"></ellipse>
            <ellipse id="Oval" stroke="#FFFFFF" fill="#FFFFFF" cx="247.748" cy="122.349" rx="1" ry="0.833"></ellipse>
            <ellipse id="Oval" stroke="#FFFFFF" fill="#FFFFFF" cx="241.441" cy="122.705" rx="1" ry="0.833"></ellipse>
            <ellipse id="Oval" stroke="#FFFFFF" fill="#FFFFFF" cx="223.082" cy="124.25" rx="1" ry="0.833"></ellipse>
            <ellipse id="Oval" stroke="#FFFFFF" fill="#FFFFFF" cx="216.164" cy="131.166" rx="1" ry="0.833"></ellipse>
            <ellipse id="Oval" stroke="#FFFFFF" fill="#FFFFFF" cx="203.961" cy="124.372" rx="1" ry="0.833"></ellipse>
            <ellipse id="Oval" stroke="#FFFFFF" fill="#FFFFFF" cx="210.093" cy="132" rx="1" ry="0.833"></ellipse>
            <ellipse id="Oval" stroke="#FFFFFF" fill="#FFFFFF" cx="210.093" cy="128.167" rx="1" ry="0.833"></ellipse>
            <ellipse id="Oval" stroke="#FFFFFF" fill="#FFFFFF" cx="210.093" cy="124.372" rx="1" ry="0.833"></ellipse>
            <ellipse id="Oval" stroke="#FFFFFF" fill="#FFFFFF" cx="198.711" cy="131.999" rx="1" ry="0.833"></ellipse>
            <ellipse id="Oval" stroke="#FFFFFF" fill="#FFFFFF" cx="198.711" cy="127.749" rx="1" ry="0.833"></ellipse>
            <ellipse id="Oval" stroke="#FFFFFF" fill="#FFFFFF" cx="198.711" cy="124.372" rx="1" ry="0.833"></ellipse>
            <ellipse id="Oval" stroke="#FFFFFF" fill="#FFFFFF" cx="203.961" cy="128.167" rx="1" ry="0.833"></ellipse>
            <ellipse id="Oval" stroke="#FFFFFF" fill="#FFFFFF" cx="186.858" cy="137.582" rx="1" ry="0.833"></ellipse>
            <ellipse id="Oval" stroke="#FFFFFF" fill="#FFFFFF" cx="215.858" cy="118.328" rx="1" ry="0.833"></ellipse>
            <ellipse id="Oval" stroke="#FFFFFF" fill="#FFFFFF" cx="215.539" cy="111.823" rx="1" ry="0.833"></ellipse>
            <ellipse id="Oval" stroke="#FFFFFF" fill="#FFFFFF" cx="221.664" cy="106.917" rx="1" ry="0.833"></ellipse>
            <ellipse id="Oval" stroke="#FFFFFF" fill="#FFFFFF" cx="227.109" cy="107.75" rx="1" ry="0.833"></ellipse>
            <ellipse id="Oval" stroke="#FFFFFF" fill="#FFFFFF" cx="232.078" cy="107.75" rx="1" ry="0.833"></ellipse>
            <ellipse id="Oval" stroke="#FFFFFF" fill="#FFFFFF" cx="235.141" cy="100.25" rx="1" ry="0.833"></ellipse>
            <ellipse id="Oval" stroke="#FFFFFF" fill="#FFFFFF" cx="235.297" cy="94.472" rx="1" ry="0.833"></ellipse>
            <ellipse id="Oval" stroke="#FFFFFF" fill="#FFFFFF" cx="235.297" cy="88.656" rx="1" ry="0.833"></ellipse>
            <path d="M260.316,114.726 L260.797,118.663" id="Shape" stroke="#FFFFFF" stroke-width="0.25"></path>
            <path d="M257.475,115.161 L257.955,119.099" id="Shape" stroke="#FFFFFF" stroke-width="0.25"></path>
            <path d="M254.162,115.653 L254.642,119.591" id="Shape" stroke="#FFFFFF" stroke-width="0.25"></path>
            <path d="M251.263,115.934 L251.742,119.871" id="Shape" stroke="#FFFFFF" stroke-width="0.25"></path>
            <path d="M248.748,116.32 L249.229,120.258" id="Shape" stroke="#FFFFFF" stroke-width="0.25"></path>
            <path d="M246.509,116.597 L246.988,120.534" id="Shape" stroke="#FFFFFF" stroke-width="0.25"></path>
            <path d="M244.154,116.768 L244.634,120.705" id="Shape" stroke="#FFFFFF" stroke-width="0.25"></path>
            <path d="M241.549,117.077 L242.027,121.015" id="Shape" stroke="#FFFFFF" stroke-width="0.25"></path>
            <path d="M238.235,117.374 L238.715,121.312" id="Shape" stroke="#FFFFFF" stroke-width="0.25"></path>
            <path d="M235.815,117.494 L236.295,121.432" id="Shape" stroke="#FFFFFF" stroke-width="0.25"></path>
            <path d="M233.516,117.741 L233.994,121.679" id="Shape" stroke="#FFFFFF" stroke-width="0.25"></path>
            <path d="M231.062,117.902 L231.541,121.84" id="Shape" stroke="#FFFFFF" stroke-width="0.25"></path>
            <path d="M229.165,118.097 L229.645,122.034" id="Shape" stroke="#FFFFFF" stroke-width="0.25"></path>
            <g id="Group" transform="translate(95.000000, 113.000000)">
                <g opacity="0.65" transform="translate(1.000000, 7.000000)" id="Shape" stroke="#B3B3B3" stroke-width="0.1509" fill="#E6E6E6">
                    <path d="M76.109,11.271 C74.399,11.574 71.033,11.574 71.033,11.574 L4.921,11.427 C4.921,11.427 3.573,11.093 2.909,10.516 C2.555,10.208 2.294,10.34 1.778,9.535 C1.724,9.452 0.759,7.757 0.721,7.676 C0.45,7.072 1.063,7.204 1.49,7.231 C1.516,7.055 1.54,6.881 1.568,6.682 C2.2,6.705 2.8,6.723 3.433,6.745 C3.429,6.912 3.425,7.067 3.42,7.246 C3.935,7.269 4.419,7.292 4.928,7.316 C4.964,7.083 4.996,6.873 5.028,6.652 C5.318,6.625 5.587,6.6 5.888,6.573 C5.902,6.504 5.917,6.434 5.928,6.366 C5.947,6.255 5.913,6.144 6.079,6.05 C6.15,6.01 6.134,5.901 6.141,5.824 C6.167,5.521 6.203,5.22 6.203,4.917 C6.203,4.753 6.356,4.623 6.406,4.471 C6.417,4.441 6.496,4.413 6.55,4.39 C6.586,4.375 6.661,4.378 6.672,4.361 C6.825,4.129 7.131,4.248 7.337,4.227 C7.456,4.31 7.565,4.369 7.638,4.441 C7.778,4.582 7.909,4.725 7.897,4.899 C7.875,5.237 7.852,5.575 7.83,5.912 C7.826,5.976 7.826,6.039 7.823,6.113 C8.011,6.129 8.177,6.141 8.393,6.159 C8.412,6.414 8.369,6.67 8.361,6.927 C8.354,7.176 8.349,7.426 8.343,7.678 C8.805,7.682 9.222,7.688 9.682,7.692 C9.727,6.831 9.774,5.986 9.821,5.129 C9.941,5.117 10.049,5.107 10.183,5.094 C10.197,4.963 10.214,4.835 10.222,4.707 C10.248,4.219 10.275,3.73 10.292,3.24 C10.297,3.128 10.327,3.04 10.575,3.036 C10.613,2.548 10.651,2.069 10.689,1.581 C10.812,1.557 10.916,1.535 11.057,1.508 C11.077,1.406 11.109,1.295 11.118,1.182 C11.137,0.931 11.14,0.679 11.159,0.429 C11.164,0.357 11.198,0.285 11.224,0.197 C11.394,0.268 11.348,0.347 11.344,0.414 C11.334,0.674 11.312,0.931 11.295,1.189 C11.288,1.274 11.284,1.355 11.53,1.336 C11.613,1.002 11.625,0.656 11.7,0.311 C11.796,0.684 11.76,1.057 11.798,1.431 C11.931,1.462 12.047,1.491 12.184,1.52 C12.172,2.014 12.161,2.506 12.15,2.986 C12.353,3.052 12.539,3.114 12.729,3.175 C12.713,3.815 12.7,4.452 12.685,5.097 C12.823,5.115 12.942,5.131 13.102,5.152 C13.101,5.222 13.1,5.293 13.098,5.362 C13.083,5.765 13.068,6.168 13.05,6.571 C13.046,6.679 13.055,6.781 13.181,6.873 C13.24,6.917 13.263,6.988 13.27,7.049 C13.291,7.214 13.286,7.379 13.307,7.544 C13.32,7.643 13.361,7.739 13.393,7.849 C13.629,7.851 13.841,7.854 14.096,7.856 C14.106,7.419 14.116,6.984 14.125,6.533 C14.846,6.477 15.524,6.502 16.231,6.514 C16.255,6.723 16.276,6.907 16.299,7.091 C16.324,7.303 16.313,7.522 16.609,7.69 C16.718,7.654 16.685,7.583 16.689,7.527 C16.73,6.923 16.765,6.319 16.802,5.715 C16.806,5.635 16.807,5.557 16.827,5.478 C16.836,5.44 16.883,5.376 16.917,5.376 C17.149,5.369 17.109,5.24 17.174,5.154 C17.322,5.136 17.466,5.115 17.612,5.106 C17.686,5.101 17.782,5.106 17.836,5.132 C17.975,5.202 18.075,5.204 18.22,5.128 C18.366,5.053 18.584,5.099 18.618,5.217 C18.65,5.325 18.751,5.355 18.908,5.381 C18.918,5.786 18.928,6.187 18.938,6.597 C19.111,6.586 19.261,6.618 19.376,6.527 C19.405,6.505 19.475,6.494 19.528,6.491 C19.778,6.48 20.03,6.473 20.282,6.467 C20.326,6.467 20.377,6.465 20.417,6.475 C20.563,6.51 20.701,6.561 20.85,6.583 C20.992,6.604 21.143,6.598 21.309,6.604 C21.33,6.688 21.35,6.763 21.366,6.824 C21.642,6.899 21.902,6.97 22.19,7.049 C22.21,7.103 22.236,7.171 22.259,7.238 C22.399,7.276 22.537,7.313 22.728,7.364 C22.733,7.135 22.738,6.938 22.743,6.721 C22.923,6.708 23.065,6.7 23.248,6.688 C23.391,6.279 23.277,5.853 23.394,5.417 C23.962,5.37 24.523,5.283 25.108,5.336 C25.739,5.395 26.372,5.439 27.046,5.493 C27.053,5.854 27.061,6.212 27.069,6.584 C27.202,6.594 27.312,6.604 27.422,6.606 C27.536,6.61 27.624,6.614 27.71,6.688 C27.835,6.795 28.038,6.726 28.249,6.737 C28.284,6.213 28.318,5.699 28.354,5.162 C29.322,5.137 30.25,5.014 31.23,5.048 C31.225,5.298 31.22,5.525 31.214,5.767 C31.387,5.808 31.54,5.842 31.69,5.879 C31.741,5.893 31.794,5.913 31.829,5.939 C32.004,6.071 32.182,6.203 32.343,6.342 C32.392,6.383 32.403,6.447 32.408,6.502 C32.429,6.681 32.441,6.859 32.455,7.049 C32.588,7.056 32.709,7.064 32.882,7.074 C32.905,6.81 32.928,6.556 32.953,6.282 C33.327,6.266 33.689,6.249 34.049,6.235 C34.17,6.23 34.299,6.254 34.367,6.153 C34.384,6.127 34.485,6.113 34.547,6.114 C34.855,6.117 35.163,6.126 35.471,6.136 C35.526,6.137 35.618,6.15 35.628,6.168 C35.736,6.383 36.052,6.278 36.26,6.335 C36.347,6.359 36.463,6.341 36.569,6.342 C36.76,6.151 36.909,6.134 37.246,6.246 C37.342,6.28 37.458,6.295 37.569,6.305 C37.869,6.332 37.87,6.329 37.948,6.521 C37.998,6.646 38.047,6.77 38.098,6.901 C38.204,6.915 38.303,6.924 38.438,6.939 C38.45,7.332 38.462,7.717 38.475,8.115 C38.651,8.123 38.816,8.13 39.012,8.14 C39.046,8.323 39.079,8.499 39.116,8.698 C39.466,8.78 39.862,8.719 40.259,8.77 C40.27,8.887 40.278,8.999 40.287,9.129 C40.347,9.12 40.395,9.112 40.446,9.106 C40.329,8.921 40.343,8.881 40.53,8.812 C40.496,8.738 40.44,8.668 40.438,8.598 C40.43,8.181 40.431,7.765 40.436,7.347 C40.438,7.264 40.431,7.146 40.508,7.106 C40.678,7.019 40.889,6.943 41.102,6.916 C41.343,6.883 41.604,6.9 41.855,6.906 C42.11,6.91 42.315,7.049 42.322,7.211 C42.325,7.289 42.321,7.368 42.318,7.462 C42.422,7.454 42.506,7.445 42.592,7.442 C42.67,7.436 42.75,7.434 42.869,7.431 C42.872,7.266 42.875,7.105 42.879,6.952 C43.277,6.856 44.537,6.846 45.195,6.93 C45.203,7.308 45.211,7.693 45.218,8.094 C45.321,8.107 45.414,8.119 45.54,8.135 C45.55,7.668 45.561,7.221 45.57,6.818 C45.742,6.722 45.85,6.637 45.989,6.589 C46.163,6.529 46.359,6.477 46.552,6.464 C46.774,6.45 47.002,6.485 47.265,6.5 C47.273,6.861 47.283,7.21 47.291,7.574 C47.657,7.577 47.994,7.581 48.334,7.584 C48.367,7.66 48.393,7.721 48.419,7.781 C48.573,7.795 48.64,7.766 48.715,7.678 C48.912,7.444 49.151,7.225 49.377,7.001 C49.391,6.984 49.431,6.98 49.501,6.957 C49.527,7.106 49.551,7.245 49.576,7.382 C49.599,7.383 49.621,7.383 49.643,7.383 C49.646,7.246 49.65,7.11 49.654,6.926 C49.952,7.121 50.191,7.278 50.481,7.468 C50.485,7.246 50.49,7.067 50.494,6.876 C50.753,6.835 51.018,6.865 51.216,6.744 C51.262,6.718 51.42,6.723 51.478,6.751 C51.734,6.874 52.031,6.86 52.322,6.876 C52.467,6.886 52.611,6.899 52.765,6.913 C52.831,7.293 52.794,7.661 52.844,8.025 C52.87,8.025 52.9,8.024 52.928,8.024 C52.937,7.591 52.949,7.162 52.958,6.707 C53.575,6.682 54.163,6.658 54.78,6.635 C54.788,6.338 54.794,6.057 54.801,5.775 C54.825,5.775 54.85,5.774 54.874,5.774 C54.916,6.157 54.958,6.54 55.003,6.945 C55.28,6.96 55.546,6.974 55.821,6.988 C55.826,6.774 55.834,6.567 55.834,6.362 C55.833,6.138 55.811,5.916 55.82,5.694 C55.823,5.596 55.863,5.494 55.924,5.405 C56.024,5.261 56.147,5.122 56.276,4.986 C56.52,4.724 56.727,4.456 56.724,4.14 C56.724,4.121 56.748,4.101 56.78,4.058 C56.807,4.118 56.839,4.156 56.839,4.193 C56.836,4.422 57.009,4.597 57.233,4.769 C57.621,5.067 57.802,5.419 57.816,5.803 C57.837,6.435 59.338,7.27 59.366,7.904 C59.371,8.052 59.355,8.082 59.366,8.23 C59.41,8.861 59.293,9.466 59.329,10.098 C59.333,10.147 59.329,10.098 59.339,10.158 C59.449,10.163 60.527,10.11 60.672,10.118 C60.64,7.574 60.743,5.129 60.672,2.597 C61.17,2.571 61.038,2.611 61.509,2.584 C61.531,2.584 62.204,2.591 62.189,2.591 C61.918,2.589 61.885,2.604 62.308,2.604 C62.545,2.604 62.428,2.614 62.433,2.749 C62.509,4.633 62.409,6.165 62.477,8.049 C62.624,8.086 62.902,7.801 62.905,7.728 C62.905,7.728 63.186,7.826 63.187,7.704 C63.187,7.704 63.088,7.391 63.186,7.379 C63.602,7.325 63.347,7.4 63.439,7.377 C63.443,7.212 63.416,6.906 63.42,6.743 C63.836,6.584 63.791,6.772 64.243,6.698 C64.382,6.674 64.324,7.204 64.346,7.339 C65.077,7.41 64.578,7.248 65.307,7.341 C65.328,7.408 65.349,7.47 65.373,7.543 C65.571,7.575 65.777,7.607 65.984,7.64 C66.008,7.741 66.03,7.833 66.052,7.935 C66.267,7.937 66.467,7.938 66.681,7.941 C66.712,7.882 66.744,7.826 66.782,7.759 C66.983,7.76 67.174,7.761 67.378,7.764 C67.482,8.007 67.793,7.955 68.096,7.963 C68.098,7.812 68.102,7.667 68.107,7.508 C68.254,7.497 68.385,7.488 68.538,7.478 C68.556,7.37 68.558,7.261 68.596,7.158 C68.631,7.063 68.682,6.966 68.762,6.884 C68.857,6.782 68.954,6.783 69.09,6.868 C69.265,6.974 69.428,7.086 69.389,7.259 C69.385,7.279 69.405,7.3 69.423,7.35 C69.652,7.229 69.915,7.246 70.165,7.264 C70.415,7.282 70.655,7.336 70.938,7.38 C71.046,7.769 70.998,8.18 71.058,8.6 C71.222,8.591 71.352,8.585 71.51,8.578 C71.495,8.112 71.48,7.662 71.467,7.263 C71.608,7.114 71.713,7.003 71.82,6.891 C72.041,6.876 71.832,7.124 72.116,7.086 C72.14,7.011 72.164,6.932 72.19,6.854 C72.212,6.85 72.234,6.846 72.257,6.843 C72.331,6.923 72.403,7.003 72.495,7.103 C72.555,7.022 72.606,6.952 72.673,6.865 C72.855,6.96 72.772,7.171 73.083,7.144 C73.105,7.36 73.128,7.551 73.15,7.768 C73.498,7.752 73.814,7.738 74.156,7.725 C74.165,7.654 74.177,7.593 74.179,7.53 C74.208,6.926 74.234,6.323 74.263,5.718 C74.267,5.637 74.228,5.548 74.416,5.505 C74.469,5.494 74.496,5.397 74.496,5.338 C74.494,4.936 74.479,4.532 74.473,4.131 C74.473,4.057 74.437,3.976 74.588,3.878 C74.713,4.396 74.636,4.884 74.746,5.372 C74.909,5.364 75.066,5.357 75.252,5.35 C75.264,4.856 75.274,4.37 75.286,3.871 C75.44,3.892 75.424,3.958 75.429,4.007 C75.451,4.252 75.471,4.495 75.488,4.739 C75.508,4.962 75.455,5.199 75.539,5.42 C75.625,5.647 75.623,9.639 75.61,9.791 C75.601,9.889 75.786,9.718 76.112,9.517"></path>
                </g>
                <polygon id="Shape" fill="#BE1E2D" points="13.91 20.327 15.782 24.573 20.397 24.072 17.655 27.816 20.397 31.562 15.782 31.06 13.91 35.306 11.886 31.06 7.424 31.562 10.166 27.816 7.424 24.072 12.038 24.573"></polygon>
                <text id="CHIentist" stroke="#0000FF" stroke-width="0.5" fill="#1787ED" opacity="0.76" font-family="Helvetica" font-size="18.5577" font-weight="normal">
                    <tspan x="0.502" y="18.4365">CHIentist</tspan>
                </text>
                <polygon id="Shape" fill="#BE1E2D" points="31.864 20.327 33.737 24.573 38.351 24.072 35.609 27.816 38.351 31.562 33.737 31.06 31.864 35.306 29.841 31.06 25.379 31.562 28.119 27.816 25.379 24.072 29.992 24.573"></polygon>
                <polygon id="Shape" fill="#BE1E2D" points="49.668 20.327 51.54 24.573 56.154 24.072 53.412 27.816 56.154 31.562 51.54 31.06 49.668 35.306 47.644 31.06 43.182 31.562 45.922 27.816 43.182 24.072 47.796 24.573"></polygon>
                <polygon id="Shape" fill="#BE1E2D" points="67.521 20.327 69.395 24.573 74.009 24.072 71.267 27.816 74.009 31.562 69.395 31.06 67.521 35.306 65.498 31.06 61.035 31.562 63.776 27.816 61.035 24.072 65.649 24.573"></polygon>
                <g transform="translate(11.000000, 24.000000)">
                    <path d="M2.345,3.041 L3.571,3.041" id="Shape" stroke="#FFFFFF" stroke-width="0.2716"></path>
                    <path d="M1.935,3.45 L3.571,3.45" id="Shape" stroke="#FFFFFF" stroke-width="0.2716"></path>
                    <path d="M1.935,3.858 L3.571,3.858" id="Shape" stroke="#FFFFFF" stroke-width="0.2716"></path>
                    <path d="M1.935,4.268 L3.571,4.268" id="Shape" stroke="#FFFFFF" stroke-width="0.2716"></path>
                    <path d="M1.935,4.677 L3.161,4.677" id="Shape" stroke="#FFFFFF" stroke-width="0.2716"></path>
                    <path d="M2.345,5.902 L3.241,5.902" id="Shape" stroke="#FFFFFF" stroke-width="0.2716"></path>
                    <path d="M2.161,6.312 L3.527,6.312" id="Shape" stroke="#FFFFFF" stroke-width="0.2716"></path>
                    <path d="M2.16,1.406 L3.342,1.406" id="Shape" stroke="#FFFFFF" stroke-width="0.2716"></path>
                    <path d="M2.345,1.814 L3.158,1.814" id="Shape" stroke="#FFFFFF" stroke-width="0.2716"></path>
                    <g id="Clipped">
                        <g>
                            <mask id="mask-2" fill="white">
                                <use xlink:href="#path-1"></use>
                            </mask>
                            <g id="SVGID_1_"></g>
                            <path d="M2.086,0.997 C2.086,2.173 3.721,2.431 3.721,3.576 C3.721,4.721 2.086,5.581 2.086,6.747" id="Shape" stroke="#FFFFFF" stroke-width="0.3018" mask="url(#mask-2)"></path>
                        </g>
                        <g>
                            <mask id="mask-4" fill="white">
                                <use xlink:href="#path-3"></use>
                            </mask>
                            <g id="SVGID_1_"></g>
                            <path d="M3.622,6.721 C3.578,5.542 1.829,5.351 1.786,4.202 C1.744,3.056 3.452,2.131 3.407,0.964" id="Shape" stroke="#FFFFFF" stroke-width="0.3018" mask="url(#mask-4)"></path>
                        </g>
                    </g>
                </g>
                <g transform="translate(28.000000, 24.000000)" stroke="#FFFFFF">
                    <ellipse id="Oval" stroke-width="0.3018" cx="3.864" cy="3.82" rx="3.083" ry="1.005"></ellipse>
                    <ellipse id="Oval" stroke-width="0.5" transform="translate(3.843316, 3.791917) rotate(240.928144) translate(-3.843316, -3.791917) " cx="3.84335523" cy="3.79192975" rx="3.083" ry="1.004"></ellipse>
                    <ellipse id="Oval" stroke-width="0.5" transform="translate(3.851536, 3.829451) rotate(-61.717871) translate(-3.851536, -3.829451) " cx="3.85162398" cy="3.82948011" rx="3.083" ry="1.004"></ellipse>
                    <path d="M4.341,3.872 C4.341,4.107 4.143,4.296 3.899,4.296 C3.655,4.296 3.456,4.108 3.456,3.872 C3.456,3.638 3.655,3.448 3.899,3.448 C4.143,3.448 4.341,3.638 4.341,3.872" id="Shape" stroke-width="0.3018" fill="#FFFFFF"></path>
                </g>
                <g id="XMLID_2_" transform="translate(47.000000, 24.000000)">
                    <g id="Group">
                        <path d="M4.433,5.647 C4.396,5.842 3.899,5.777 3.636,5.777 L1.802,5.777 C1.544,5.777 1.046,5.844 1.005,5.658 C0.977,5.526 1.168,5.292 1.225,5.21 C1.497,4.801 1.522,4.731 1.782,4.359 C2.11,4.359 2.912,4.348 3.263,4.348 C3.369,4.348 3.367,4.359 3.453,4.339 C3.572,4.313 3.665,4.382 3.665,4.382 C3.894,4.725 4.088,5.031 4.332,5.407 C4.383,5.487 4.449,5.563 4.433,5.647 L4.433,5.647 Z" id="Shape" fill="#FFFFFF"></path>
                        <path d="M0.965,5.27 C0.86,5.425 0.715,5.578 0.725,5.768 C0.74,6.039 1.3,5.978 1.622,5.978 L3.834,5.978 C4.203,5.978 4.674,6.03 4.71,5.749 C4.731,5.583 4.559,5.391 4.471,5.26 C4.173,4.813 3.877,4.366 3.595,3.946 C3.39,3.642 3.199,3.354 3.137,2.939 C3.055,2.406 3.145,1.706 3.137,1.206 C2.887,1.184 2.595,1.202 2.33,1.196 C2.318,1.201 2.308,1.206 2.3,1.217 C2.273,1.321 2.315,1.431 2.319,1.516 C2.333,1.769 2.319,2.014 2.319,2.242 C2.319,2.487 2.326,2.729 2.289,2.94 C2.213,3.364 2.033,3.633 1.83,3.947 C1.559,4.364 1.258,4.838 0.965,5.27 L0.965,5.27 Z M3.694,0.885 C3.745,1.02 3.555,1.189 3.525,1.324 C3.487,1.489 3.514,1.69 3.514,1.852 C3.514,2.397 3.479,2.93 3.664,3.315 C3.759,3.514 3.9,3.679 4.013,3.853 C4.254,4.23 4.471,4.546 4.72,4.919 C4.892,5.179 5.24,5.543 5.069,5.985 C4.914,6.382 4.471,6.375 3.883,6.375 L1.771,6.375 C1.188,6.375 0.583,6.437 0.386,6.036 C0.331,5.925 0.306,5.648 0.365,5.477 C0.43,5.289 0.594,5.108 0.714,4.929 C0.955,4.569 1.185,4.23 1.422,3.863 C1.695,3.44 1.92,3.133 1.92,2.408 C1.92,2.109 1.968,1.654 1.91,1.352 C1.895,1.279 1.858,1.198 1.82,1.132 C1.755,1.022 1.65,0.853 1.87,0.804 C2.109,0.751 2.559,0.794 2.837,0.794 C3.066,0.796 3.635,0.73 3.694,0.885 L3.694,0.885 Z" id="Shape" fill="#FFFFFF"></path>
                        <path d="M1.781,4.359 C1.521,4.731 1.496,4.8 1.224,5.21 C1.166,5.292 0.975,5.526 1.004,5.658 C1.045,5.845 1.543,5.777 1.801,5.777 L3.635,5.777 C3.898,5.777 4.395,5.842 4.432,5.647 C4.448,5.562 4.382,5.487 4.331,5.408 C4.087,5.032 3.894,4.725 3.664,4.383 C3.664,4.383 3.571,4.314 3.452,4.34 C3.365,4.36 3.368,4.349 3.262,4.349 C2.911,4.349 2.108,4.359 1.781,4.359 L1.781,4.359 Z M3.137,2.938 C3.2,3.353 3.391,3.641 3.595,3.945 C3.878,4.366 4.173,4.812 4.471,5.259 C4.559,5.39 4.731,5.582 4.71,5.748 C4.674,6.029 4.203,5.977 3.834,5.977 L1.622,5.977 C1.3,5.977 0.739,6.038 0.725,5.767 C0.715,5.577 0.859,5.424 0.965,5.269 C1.258,4.837 1.559,4.364 1.831,3.944 C2.034,3.631 2.214,3.361 2.29,2.937 C2.327,2.726 2.32,2.484 2.32,2.239 C2.32,2.011 2.334,1.766 2.32,1.513 C2.316,1.428 2.274,1.318 2.301,1.214 C2.308,1.203 2.319,1.198 2.331,1.193 C2.596,1.199 2.888,1.18 3.138,1.203 C3.145,1.704 3.055,2.404 3.137,2.938 L3.137,2.938 Z" id="Shape" fill="#C1272D"></path>
                    </g>
                </g>
                <circle id="Oval" fill="#FFFFFF" cx="49.496" cy="27.968" r="0.154"></circle>
                <ellipse id="Oval" fill="#FFFFFF" cx="49.869" cy="27.625" rx="0.129" ry="0.136"></ellipse>
                <circle id="Oval" fill="#FFFFFF" cx="49.499" cy="27.297" r="0.107"></circle>
                <g id="XMLID_3_" transform="translate(65.000000, 24.000000)" fill="#FFFFFF">
                    <g id="Group">
                        <path d="M2.384,3.558 C2.257,3.81 2.101,4.034 1.977,4.288 C1.708,4.164 1.482,3.999 1.22,3.867 C1.545,3.269 1.882,2.677 2.23,2.086 C2.343,1.893 2.439,1.685 2.594,1.524 C2.663,1.516 2.685,1.556 2.735,1.568 C2.853,1.38 2.96,1.183 3.071,0.991 C3.111,0.954 3.037,0.956 3.045,0.908 C3.06,0.844 3.102,0.805 3.129,0.753 C3.34,0.833 3.501,0.959 3.69,1.063 C3.659,1.138 3.617,1.291 3.522,1.215 C3.41,1.422 3.294,1.627 3.17,1.819 C3.496,1.955 3.002,2.371 2.96,2.577 C2.308,2.214 1.751,3.225 2.384,3.558 L2.384,3.558 Z" id="Shape"></path>
                        <path d="M1.305,5.845 C1.986,5.845 2.441,5.823 2.805,5.466 C3.031,5.244 3.181,4.954 3.212,4.611 C3.253,4.142 3.08,3.88 2.889,3.588 C3.07,3.528 3.159,3.381 3.226,3.209 C3.237,3.211 3.241,3.223 3.254,3.223 C3.542,3.559 3.775,4.036 3.731,4.655 C3.694,5.17 3.42,5.576 3.157,5.846 C3.588,5.779 3.821,5.909 3.731,6.366 L0.562,6.366 C0.555,6.137 0.541,5.921 0.687,5.86 C0.842,5.797 1.106,5.845 1.305,5.845 L1.305,5.845 Z" id="Shape"></path>
                        <path d="M3.058,2.942 C3.237,3.557 2.28,3.684 2.258,3.096 C2.248,2.837 2.393,2.7 2.623,2.674 C2.867,2.647 3.014,2.792 3.058,2.942 L3.058,2.942 Z" id="Shape"></path>
                        <path d="M0.841,3.867 C1.299,4.09 1.72,4.353 2.146,4.61 C2.145,4.685 2.096,4.71 2.076,4.765 C1.624,4.535 1.202,4.273 0.771,4.021 C0.778,3.952 0.823,3.925 0.841,3.867 L0.841,3.867 Z" id="Shape"></path>
                        <path d="M1.458,4.638 C1.579,4.701 1.688,4.774 1.809,4.836 C1.737,4.948 1.676,5.078 1.599,5.186 C1.457,5.153 1.37,5.07 1.262,5.004 C1.318,4.872 1.405,4.773 1.458,4.638 L1.458,4.638 Z" id="Shape"></path>
                        <path d="M1.178,4.471 C1.108,4.588 1.046,4.713 0.967,4.822 C0.826,4.788 0.738,4.706 0.631,4.638 C0.691,4.517 0.768,4.409 0.827,4.288 C0.965,4.328 1.055,4.415 1.178,4.471 L1.178,4.471 Z" id="Shape"></path>
                    </g>
                </g>
            </g>
            <text id="CONNECT" stroke="#0000FF" stroke-width="0.5" fill="#1787ED" opacity="0.76" font-family="Helvetica" font-size="18" font-weight="normal">
                <tspan x="93.7075744" y="162">CONNECT</tspan>
            </text>
        </g>
    </g>
</svg>